<svg width="23" height="23" viewBox="0 0 59 59" fill="#ad13fb" xmlns="http://www.w3.org/2000/svg">
  <path fill-rule="evenodd" clip-rule="evenodd" d="M29.0742 58.599C27.5751 58.5846 26.0769 58.4556 24.5939 58.2121L0.501371 34.1196C0.257858 32.6365 0.128903 31.1384 0.114507 29.6393L29.0742 58.599ZM8.67841 50.0351C5.52155 46.8782 3.23732 43.1791 1.82573 39.2377L19.4758 56.8877C15.5343 55.4761 11.8353 53.1919 8.67841 50.0351ZM32.6809 58.4119C33.8546 58.2784 35.0218 58.0739 36.1755 57.7985L0.914957 22.538C0.639529 23.6917 0.435058 24.8589 0.301547 26.0326L32.6809 58.4119ZM41.9993 55.7351C41.0525 56.1889 40.0864 56.5888 39.1055 56.9348L1.7787 19.608C2.12468 18.6271 2.52455 17.661 2.97832 16.7142L41.9993 55.7351ZM44.4626 54.4047C45.3007 53.8984 46.119 53.3462 46.9136 52.7482L5.96527 11.7998C5.36726 12.5945 4.81508 13.4127 4.30873 14.2509L44.4626 54.4047ZM50.0351 50.0351C49.693 50.3772 49.3445 50.7091 48.9899 51.0308L7.68269 9.72353C8.00434 9.36901 8.33625 9.02048 8.67841 8.67833C9.02208 8.33466 9.37217 8.00133 9.7283 7.67835L51.0351 48.9852C50.7121 49.3413 50.3788 49.6914 50.0351 50.0351ZM52.7521 46.9084C53.3483 46.1158 53.899 45.2997 54.404 44.4638L14.2496 4.30943C13.4138 4.81448 12.5977 5.36512 11.805 5.96135L52.7521 46.9084ZM56.9336 39.1089C56.5877 40.0891 56.1881 41.0545 55.7345 42.0006L16.7129 2.97891C17.659 2.5254 18.6244 2.12572 19.6046 1.77986L56.9336 39.1089ZM57.7977 36.1792C58.0732 35.0258 58.2778 33.8589 58.4115 32.6854L26.028 0.301992C24.8546 0.435661 23.6877 0.640258 22.5342 0.915785L57.7977 36.1792ZM58.2103 24.5826C58.4553 26.071 58.5849 27.5747 58.5991 29.0793L29.6341 0.114372C31.1387 0.128554 32.6425 0.258141 34.1309 0.503131L58.2103 24.5826ZM56.8826 19.4611C55.4706 15.5251 53.1881 11.8313 50.0351 8.67833C46.8822 5.52537 43.1884 3.24289 39.2524 1.83089L56.8826 19.4611Z" fill="#ad13fb" />
</svg>